# xmcd CD database file
#
# Track frame offsets:
#	150
#	10752
#	23172
#	32225
#	50030
#	60382
#	73217
#	82287
#	91407
#	102947
#	115960
#	125750
#	139677
#	151582
#
# Disc length: 2199 seconds
#
# Revision: 0
# Processed by: cddbd v1.4PL0 Copyright (c) Steve Scherf et al.
# Submitted via: CDex 1.50beta10
#
DISCID=be08950e
DTITLE=Shady Mix - Made in the shade
DYEAR=1997
DGENRE=Country
TTITLE0=Out of sight, out of mind/L. Maring
TTITLE1=I still miss someone/J. and R. Jr. Cash
TTITLE2=Long gone/D.Reno and R. Smiley
TTITLE3=Crying times/L. Maring
TTITLE4=Slipping on the ice/J. Robins
TTITLE5=Daddy said/Nanci Griffith
TTITLE6=Don´t get above your raising/L. Flatt , E. Scruggs
TTITLE7=Grey Eagle/Trad., arr. M. Stoffel
TTITLE8=Love and wealth/I. and C. Louvin
TTITLE9=New Camptown races/F. Wakefield
TTITLE10=October rose/L. Maring
TTITLE11=Ifs/L. Maring
TTITLE12=I´m going back to old Kentucky/B. Monroe
TTITLE13=Millworker/James Taylor
EXTD=YEAR: 1997
EXTT0=
EXTT1=
EXTT2=
EXTT3=
EXTT4=
EXTT5=
EXTT6=
EXTT7=
EXTT8=
EXTT9=
EXTT10=
EXTT11=
EXTT12=
EXTT13=
PLAYORDER=
